<?xml version="1.0" standalone="no"?>
<!DOCTYPE svg PUBLIC "-//W3C//DTD SVG 20010904//EN"
 "http://www.w3.org/TR/2001/REC-SVG-20010904/DTD/svg10.dtd">
<svg version="1.0" xmlns="http://www.w3.org/2000/svg"
 width="500.000000pt" height="500.000000pt" viewBox="0 0 500.000000 500.000000"
 preserveAspectRatio="xMidYMid meet">
<metadata>
Created by potrace 1.14, written by Peter Selinger 2001-2017
</metadata>
<g transform="translate(0.000000,500.000000) scale(0.100000,-0.100000)"
fill="#000000" stroke="none">
<path d="M946 3387 c-8 -12 -47 -105 -86 -207 -116 -298 -179 -462 -335 -865
-80 -209 -150 -389 -155 -400 -27 -58 -120 -312 -120 -328 0 -16 13 -17 177
-15 l177 3 79 225 c43 124 94 268 112 320 19 52 64 182 101 288 39 110 71 188
74 180 4 -7 29 -74 55 -148 26 -74 82 -234 125 -355 43 -121 97 -274 119 -340
23 -66 47 -131 54 -145 l13 -25 174 0 c169 0 175 1 172 20 -3 20 -34 100 -165
435 -35 91 -169 436 -298 767 -129 332 -239 605 -246 608 -7 2 -19 -6 -27 -18z"/>
<path d="M2604 3402 c-6 -4 -36 -72 -67 -152 -30 -80 -96 -251 -147 -380 -50
-129 -120 -309 -155 -400 -35 -91 -124 -322 -199 -515 -75 -192 -136 -358
-136 -368 0 -16 13 -17 177 -15 l177 3 42 120 c23 66 72 206 109 310 37 105
75 215 85 245 10 30 34 98 53 150 19 52 42 119 52 149 l18 54 14 -34 c8 -19
23 -59 33 -89 37 -110 71 -205 80 -225 5 -11 19 -49 31 -85 12 -36 62 -177
111 -315 50 -137 92 -258 95 -268 5 -16 20 -17 182 -15 170 3 176 4 173 23 -2
11 -78 211 -169 445 -91 234 -173 445 -183 470 -151 400 -337 869 -349 882 -9
10 -21 14 -27 10z"/>
<path d="M3558 3399 c-10 -6 -13 -48 -13 -169 l0 -160 165 0 c481 -2 503 -3
562 -21 31 -9 71 -28 87 -40 64 -51 89 -156 56 -236 -18 -44 -46 -69 -105 -97
-43 -20 -65 -21 -405 -26 l-360 -5 0 -528 c0 -291 2 -533 6 -538 3 -6 74 -8
170 -7 l164 3 3 367 2 367 198 4 c108 2 211 7 227 11 85 20 116 30 182 62 196
93 292 268 280 509 -6 113 -29 188 -84 273 -47 70 -102 115 -198 163 -133 65
-182 71 -577 74 -191 1 -353 -2 -360 -6z"/>
</g>
</svg>
