<?xml version="1.0" standalone="no"?>
<!DOCTYPE svg PUBLIC "-//W3C//DTD SVG 20010904//EN"
 "http://www.w3.org/TR/2001/REC-SVG-20010904/DTD/svg10.dtd">
<svg version="1.0" xmlns="http://www.w3.org/2000/svg"
 width="700.000000pt" height="700.000000pt" viewBox="0 0 700.000000 700.000000"
 preserveAspectRatio="xMidYMid meet">
<metadata>
Created by potrace 1.14, written by Peter Selinger 2001-2017
</metadata>
<g transform="translate(0.000000,700.000000) scale(0.100000,-0.100000)"
fill="#000000" stroke="none">
<path d="M5081 4775 c-1 -5 -20 -9 -43 -8 -53 1 -80 -11 -71 -34 5 -12 3 -14
-8 -8 -11 6 -12 5 -2 -5 8 -9 9 -19 2 -32 -6 -12 -6 -18 1 -18 12 0 9 -22 -5
-32 -6 -5 -6 -8 1 -8 12 0 13 -38 1 -56 -3 -6 -3 -14 0 -18 12 -12 12 -36 0
-36 -8 0 -7 -3 1 -9 8 -4 14 -12 14 -16 0 -4 -6 -12 -14 -16 -8 -6 -9 -9 -1
-9 12 0 12 -24 0 -36 -4 -4 -1 -14 6 -22 14 -18 13 -22 -5 -33 -8 -6 -9 -9 -1
-9 12 0 12 -17 1 -35 -3 -6 -1 -17 5 -25 10 -14 69 -16 454 -15 243 0 440 -2
438 -5 -2 -3 18 -6 43 -7 63 -3 112 -13 112 -24 0 -4 9 -6 20 -4 11 2 20 0 20
-6 0 -5 15 -17 34 -26 41 -19 111 -107 102 -128 -3 -8 -1 -15 5 -15 6 0 8 -4
4 -9 -3 -5 -2 -12 3 -15 12 -7 7 -139 -7 -144 -6 -2 -8 -8 -5 -13 3 -6 0 -16
-6 -24 -7 -8 -10 -15 -7 -15 3 0 -7 -15 -24 -32 -16 -18 -29 -36 -29 -41 0 -4
-4 -6 -9 -2 -5 3 -13 0 -16 -6 -10 -15 -94 -50 -130 -54 -16 -1 -37 -6 -46 -9
-9 -4 -227 -8 -485 -9 -369 -2 -468 -5 -467 -14 2 -7 -2 -13 -8 -13 -6 0 -7
-5 -2 -12 12 -20 11 -58 -1 -58 -6 0 -5 -4 2 -9 15 -9 15 -20 0 -38 -6 -8 -7
-13 -1 -13 5 0 10 -7 10 -15 0 -8 -5 -15 -11 -15 -8 0 -8 -3 -1 -8 14 -9 13
-55 0 -64 -6 -5 -6 -8 2 -8 12 0 12 -17 0 -37 -5 -8 -4 -13 2 -13 13 0 10 -22
-4 -32 -6 -5 -6 -8 1 -8 12 0 13 -38 1 -56 -3 -6 -3 -14 0 -18 12 -12 12 -36
0 -36 -8 0 -7 -3 1 -9 8 -4 14 -12 14 -16 0 -4 -6 -12 -14 -16 -7 -5 -8 -9 -2
-9 14 0 13 -52 -1 -62 -6 -5 -6 -8 1 -8 6 0 11 -7 11 -15 0 -8 -4 -15 -9 -15
-5 0 -6 -6 -1 -12 11 -18 10 -32 -2 -40 -7 -5 -6 -8 1 -8 12 0 13 -38 1 -56
-3 -6 -3 -14 0 -18 12 -12 12 -36 0 -36 -8 0 -7 -3 1 -9 8 -4 14 -12 14 -16 0
-4 -6 -12 -14 -16 -7 -5 -8 -9 -2 -9 14 0 13 -52 -1 -62 -6 -5 -6 -8 2 -8 12
0 12 -17 0 -37 -5 -8 -4 -13 2 -13 13 0 10 -22 -4 -32 -6 -5 -6 -8 1 -8 12 0
13 -38 1 -56 -3 -6 -3 -14 0 -18 12 -12 12 -36 0 -36 -8 0 -7 -3 1 -9 8 -4 14
-12 14 -16 0 -4 -6 -12 -14 -16 -7 -5 -8 -9 -2 -9 14 0 13 -52 -1 -62 -6 -5
-6 -8 1 -8 6 0 11 -7 11 -15 0 -8 -5 -15 -10 -15 -6 0 -5 -5 1 -13 15 -18 15
-29 0 -38 -7 -5 -8 -9 -2 -9 12 0 13 -38 1 -56 -3 -6 -3 -14 0 -18 12 -12 12
-36 0 -36 -8 0 -8 -3 -2 -8 14 -10 17 -32 5 -32 -6 0 -2 -10 9 -22 20 -21 28
-21 237 -22 166 -1 221 2 233 12 12 10 12 12 1 6 -12 -6 -13 -5 -4 7 8 10 11
165 10 512 -1 435 1 497 14 498 8 0 119 1 245 2 127 1 236 6 243 10 7 5 12 3
12 -5 0 -10 2 -10 8 -1 4 6 20 10 35 9 15 -2 27 1 27 6 0 6 7 8 15 4 8 -3 15
-1 15 3 0 5 9 7 20 4 11 -3 20 -1 20 5 0 6 8 9 18 7 9 -1 22 1 27 6 9 6 44 15
78 18 5 1 5 6 1 13 -4 6 -3 8 3 5 6 -4 24 0 39 8 16 8 34 15 40 15 5 0 21 10
34 23 14 12 26 20 28 18 5 -5 105 69 115 86 4 7 15 13 23 13 8 0 13 4 10 9 -4
5 7 22 24 37 16 16 35 41 41 56 6 15 15 28 19 28 8 0 23 38 21 53 -1 4 3 7 9
7 6 0 9 3 8 8 0 4 2 15 5 25 17 42 20 53 23 62 24 98 36 253 23 313 -4 19 -3
32 3 32 6 0 4 7 -3 17 -8 9 -13 25 -11 35 2 11 -2 26 -8 34 -10 11 -10 14 0
14 9 0 10 3 1 13 -6 8 -8 17 -4 20 3 4 1 7 -6 7 -7 0 -10 4 -7 8 3 5 -1 20 -9
35 -7 14 -11 28 -7 31 3 3 1 6 -5 6 -10 0 -28 46 -24 63 1 5 -3 6 -9 2 -5 -3
-10 0 -10 8 0 7 -9 23 -19 34 -11 12 -17 24 -14 27 4 3 -1 6 -10 6 -9 0 -16 4
-14 9 3 13 -110 119 -135 127 -10 3 -18 10 -18 15 0 5 -6 9 -13 9 -7 0 -22 8
-33 18 -11 10 -24 17 -30 15 -6 -2 -17 3 -24 12 -7 8 -23 15 -36 15 -12 0 -26
5 -29 10 -4 6 -10 8 -15 5 -5 -3 -11 -1 -14 4 -4 5 -25 12 -49 16 -23 4 -46
10 -52 13 -9 6 -39 10 -102 14 -18 2 -33 5 -33 9 0 3 -16 4 -35 3 -21 -2 -33
1 -30 6 3 6 0 7 -8 4 -22 -8 -107 -10 -107 -2 0 4 -6 5 -14 2 -27 -10 -336 -9
-340 1 -3 7 -5 7 -5 0 -1 -11 -92 -12 -109 -1 -7 4 -12 3 -12 -2 0 -12 -43
-10 -52 3 -5 7 -8 6 -8 0 0 -9 -42 -12 -60 -5 -3 1 -9 2 -13 1 -42 -8 -67 -6
-71 3 -2 6 -5 7 -5 1z"/>
<path d="M1325 4754 c-11 -8 -18 -17 -17 -20 2 -3 -5 -28 -16 -57 -34 -88 -35
-92 -34 -99 1 -5 -3 -8 -8 -8 -6 0 -10 -6 -9 -12 1 -7 -5 -29 -13 -48 -17 -39
-29 -72 -30 -80 0 -3 -5 -14 -11 -25 -6 -11 -12 -24 -14 -30 -11 -41 -29 -85
-35 -85 -5 0 -8 -8 -8 -18 0 -11 -7 -33 -16 -50 -8 -18 -13 -36 -10 -41 4 -5
1 -11 -4 -13 -6 -2 -12 -10 -14 -18 -3 -14 -10 -32 -38 -100 -6 -14 -12 -29
-13 -35 -2 -5 -4 -17 -6 -25 -2 -8 -7 -17 -10 -20 -8 -6 -50 -121 -52 -137 0
-7 -5 -13 -10 -13 -6 0 -7 -3 -4 -6 3 -4 1 -16 -5 -28 -7 -11 -13 -24 -14 -28
-1 -5 -3 -10 -4 -13 -1 -3 -3 -9 -4 -14 0 -5 -4 -13 -8 -17 -5 -4 -8 -16 -8
-26 0 -10 -4 -18 -10 -18 -5 0 -9 -3 -8 -7 4 -14 -26 -94 -62 -166 -10 -20
-15 -35 -10 -32 5 3 0 -12 -10 -32 -10 -21 -16 -41 -13 -45 2 -5 -1 -8 -7 -8
-6 0 -9 -4 -5 -9 3 -5 1 -12 -5 -16 -5 -3 -10 -15 -10 -26 0 -10 -5 -19 -11
-19 -5 0 -8 -4 -5 -8 2 -4 -1 -21 -9 -37 -14 -32 -50 -127 -50 -135 -1 -3 -6
-15 -13 -27 -7 -13 -10 -23 -6 -23 4 0 -1 -9 -11 -20 -10 -11 -15 -20 -11 -20
3 0 -1 -14 -9 -31 -9 -17 -14 -33 -11 -36 3 -3 -2 -12 -10 -20 -8 -8 -12 -19
-9 -24 4 -5 1 -9 -5 -9 -6 0 -9 -3 -7 -8 3 -4 -3 -25 -14 -46 -10 -21 -16 -43
-13 -47 3 -5 0 -9 -6 -9 -7 0 -10 -7 -6 -15 3 -8 1 -15 -5 -15 -6 0 -7 -4 -4
-10 3 -5 1 -10 -4 -10 -6 0 -10 -3 -10 -7 1 -5 -4 -24 -11 -43 -8 -19 -12 -37
-11 -39 1 -2 -1 -7 -6 -10 -4 -3 -16 -31 -27 -61 -10 -30 -23 -66 -29 -80 -6
-14 -10 -28 -9 -32 1 -5 -2 -8 -7 -8 -5 0 -11 -12 -14 -27 -3 -16 -11 -41 -18
-58 -7 -16 -12 -33 -11 -37 1 -5 -3 -8 -10 -8 -6 0 -9 -3 -6 -6 4 -3 -2 -24
-12 -47 -10 -23 -16 -45 -14 -49 3 -5 -2 -11 -11 -14 -14 -6 -13 -9 8 -23 21
-14 58 -16 248 -14 123 0 227 2 232 2 7 1 28 43 33 70 1 8 6 17 11 20 8 6 14
24 16 53 1 10 6 18 11 18 5 0 6 3 3 7 -4 3 -1 16 6 27 8 12 13 29 11 39 -1 9
2 17 6 17 5 0 12 15 15 33 4 17 10 37 14 42 4 6 7 17 6 25 0 8 5 21 12 28 7 7
13 24 13 38 0 13 5 24 12 24 6 0 9 3 5 6 -3 4 0 21 8 39 7 19 11 36 7 39 -3 3
0 6 7 6 8 0 11 7 7 15 -3 8 0 15 6 15 6 0 8 3 5 7 -4 3 0 17 9 31 11 17 12 22
3 17 -9 -5 -8 -1 2 11 9 10 15 27 14 37 -2 10 2 20 10 23 7 3 11 14 7 26 -4
16 -2 19 8 13 8 -5 11 -4 7 2 -3 5 2 33 13 60 10 28 16 53 13 57 -4 3 -1 6 5
6 7 0 12 9 12 20 0 11 4 20 8 20 4 0 9 9 10 20 4 43 6 50 14 50 4 0 8 9 8 20
0 10 4 29 9 42 19 47 24 63 23 71 -1 4 2 7 8 7 5 0 6 7 3 17 -5 12 -3 14 7 8
9 -6 11 -4 5 5 -4 7 -2 16 6 21 11 7 11 9 1 9 -10 0 -10 4 2 16 9 8 16 26 16
40 0 13 5 24 12 24 6 0 9 3 6 6 -4 3 4 34 17 69 12 35 20 66 17 69 -3 3 -1 6
5 6 6 0 14 12 17 26 8 31 19 25 24 -14 2 -15 6 -29 10 -32 4 -3 9 -12 11 -20
2 -8 4 -19 6 -25 1 -5 8 -23 15 -40 7 -16 15 -39 17 -50 2 -11 10 -34 18 -52
8 -17 18 -45 21 -62 4 -17 11 -31 16 -31 6 0 8 -9 5 -20 -3 -11 -2 -20 3 -20
7 0 24 -57 21 -72 0 -5 4 -8 9 -8 6 0 10 -6 10 -14 0 -8 5 -27 12 -43 14 -34
13 -31 23 -68 4 -16 12 -35 17 -42 5 -7 7 -17 3 -23 -3 -5 -1 -10 5 -10 6 0 9
-4 5 -9 -3 -5 -1 -12 5 -16 5 -3 10 -15 10 -26 0 -10 4 -19 10 -19 5 0 7 -6 4
-14 -3 -8 -1 -17 5 -20 6 -4 8 -13 4 -21 -3 -8 0 -15 7 -15 6 0 8 -4 5 -10 -3
-5 -1 -10 5 -10 6 0 8 -4 5 -10 -3 -5 -3 -16 2 -22 10 -17 54 -139 55 -155 1
-7 4 -13 8 -13 4 0 7 -7 8 -15 1 -8 3 -22 4 -30 1 -8 5 -15 10 -15 4 0 8 -8 8
-18 0 -10 5 -23 12 -30 7 -7 9 -12 5 -12 -4 0 2 -23 12 -50 11 -28 16 -50 13
-50 -4 0 -2 -4 3 -8 11 -7 40 -91 37 -104 -1 -5 2 -8 8 -8 5 0 10 -11 10 -24
0 -46 15 -49 256 -50 124 -1 232 2 242 6 9 4 13 7 8 7 -5 1 -3 8 4 16 9 10 9
15 1 15 -6 0 -10 3 -9 8 1 4 -3 17 -10 30 -7 12 -11 22 -8 22 3 0 -4 21 -15
48 -11 26 -24 56 -29 67 -13 31 -23 59 -26 72 -1 7 -9 27 -18 44 -9 18 -16 36
-16 41 0 4 -9 27 -19 51 -11 23 -25 60 -33 82 -7 22 -17 43 -23 47 -5 4 -7 8
-3 8 4 0 -1 19 -12 42 -10 23 -16 46 -14 50 3 4 1 8 -4 8 -6 0 -13 12 -17 28
-3 15 -12 41 -20 57 -7 17 -22 55 -34 85 -11 30 -26 69 -32 85 -7 17 -13 33
-13 37 -1 3 -4 10 -8 14 -5 4 -8 16 -8 26 0 10 -5 18 -11 18 -5 0 -8 4 -5 8 3
5 0 19 -7 33 -7 13 -18 42 -26 64 -8 22 -21 56 -29 75 -9 19 -17 44 -19 55 -2
10 -8 22 -14 26 -6 3 -10 9 -9 13 2 8 -14 54 -49 139 -5 12 -15 39 -22 60 -7
20 -16 37 -19 37 -3 0 -6 8 -7 18 -2 28 -27 92 -36 92 -5 0 -6 4 -2 9 3 5 1
12 -5 16 -6 4 -8 11 -4 16 3 6 -1 18 -9 27 -9 9 -16 20 -16 25 -1 4 -1 8 -2
10 0 1 -2 10 -4 20 -2 10 -10 26 -17 35 -7 10 -13 26 -13 37 0 11 -2 22 -5 25
-12 12 -30 51 -30 67 0 10 -7 27 -15 37 -8 10 -12 23 -9 27 3 5 0 9 -5 9 -6 0
-11 11 -11 24 0 14 -5 28 -10 31 -6 4 -8 11 -5 16 4 5 1 9 -5 9 -7 0 -10 7 -6
15 3 8 1 15 -4 15 -6 0 -9 3 -8 8 1 4 -3 17 -10 29 -7 12 -13 33 -14 47 -1 13
-6 22 -10 20 -4 -3 -8 1 -8 9 0 8 -14 47 -30 88 -17 41 -30 74 -30 74 1 0 -4
14 -11 30 -7 17 -13 33 -14 38 -2 4 -3 8 -5 10 -1 1 -3 10 -5 21 -2 10 -8 23
-14 29 -6 6 -11 17 -11 25 0 13 -27 41 -40 41 -3 0 -14 -6 -25 -15z"/>
<path d="M3629 4743 c-13 -14 -18 -23 -11 -19 7 4 3 -9 -8 -29 -11 -20 -22
-44 -24 -53 -1 -9 -9 -30 -16 -47 -7 -16 -14 -34 -15 -40 -2 -5 -11 -28 -20
-50 -10 -22 -19 -46 -21 -53 -1 -8 -6 -21 -10 -30 -4 -9 -8 -19 -9 -22 -1 -3
-7 -18 -13 -33 -7 -16 -12 -33 -12 -38 0 -5 -4 -9 -10 -9 -5 0 -7 -7 -4 -15 4
-8 1 -15 -7 -15 -7 0 -9 -3 -6 -6 3 -4 1 -16 -5 -28 -7 -11 -13 -25 -13 -31
-1 -5 -7 -23 -13 -38 -7 -16 -9 -34 -5 -40 4 -7 0 -8 -11 -4 -11 4 -15 3 -10
-4 4 -6 0 -15 -7 -20 -12 -7 -11 -9 1 -9 12 0 12 -2 2 -9 -7 -4 -14 -20 -16
-35 -2 -16 -9 -32 -17 -37 -8 -5 -11 -9 -7 -9 6 0 -8 -38 -55 -150 -5 -14 -11
-31 -13 -38 -1 -8 -6 -21 -10 -30 -4 -9 -8 -19 -8 -22 -1 -3 -7 -15 -14 -27
-7 -13 -10 -23 -6 -23 3 0 1 -6 -5 -14 -6 -8 -10 -20 -9 -27 2 -8 -2 -13 -8
-12 -6 1 -11 -3 -12 -10 -1 -27 -12 -60 -23 -73 -6 -8 -8 -14 -4 -14 4 0 2 -7
-5 -15 -6 -8 -9 -19 -5 -25 3 -5 -1 -13 -9 -16 -9 -3 -13 -10 -10 -15 3 -6 2
-15 -3 -22 -5 -7 -15 -31 -23 -54 -7 -24 -17 -43 -22 -43 -5 0 -7 -4 -4 -8 2
-4 -4 -27 -14 -50 -11 -23 -17 -42 -14 -42 2 0 -3 -15 -13 -32 -9 -18 -18 -40
-19 -48 -2 -8 -7 -23 -13 -35 -15 -33 -24 -59 -23 -67 1 -5 -3 -8 -10 -8 -6 0
-9 -3 -5 -6 3 -4 0 -19 -8 -34 -8 -15 -11 -30 -8 -34 4 -3 0 -6 -7 -6 -7 0
-10 -3 -7 -7 4 -3 3 -11 -2 -17 -4 -6 -16 -35 -25 -63 -10 -29 -22 -55 -27
-59 -5 -3 -7 -10 -3 -15 3 -5 -1 -21 -10 -34 -9 -13 -16 -30 -16 -37 0 -7 -13
-39 -28 -70 -15 -31 -23 -54 -17 -50 7 4 7 1 -1 -9 -8 -11 -65 -149 -70 -169
-1 -5 -19 -51 -31 -80 -3 -8 -5 -18 -5 -22 1 -5 -3 -8 -9 -8 -5 0 -7 -5 -3
-11 3 -6 3 -14 -2 -18 -5 -3 -17 -31 -28 -61 -10 -30 -21 -60 -23 -67 -2 -6 6
-15 19 -19 30 -10 466 -11 481 -2 7 4 8 8 3 8 -5 0 -3 7 4 15 7 8 9 15 4 15
-5 0 -3 4 4 9 7 4 14 18 15 29 1 12 5 22 9 22 4 0 5 7 2 15 -4 8 -2 15 3 15 5
0 10 6 10 13 0 6 15 53 32 102 35 99 37 106 41 120 1 6 7 19 13 30 6 11 10 26
9 33 -2 6 1 12 5 12 5 0 9 8 10 18 1 9 7 31 14 47 7 17 13 32 14 35 6 24 29
87 35 95 4 6 6 18 5 28 -2 10 2 20 9 23 7 3 12 16 10 30 -1 13 2 24 7 24 5 0
9 9 9 20 0 11 4 20 10 20 5 0 7 6 4 14 -3 8 0 17 5 21 6 3 9 11 6 16 -4 5 -2
9 4 9 5 0 8 9 6 20 -2 11 0 20 4 20 7 0 23 46 25 75 1 6 7 16 14 23 6 7 12 24
12 38 0 13 4 24 8 24 4 0 9 12 10 27 1 15 5 29 10 32 7 6 14 28 15 49 0 6 4
12 9 12 5 0 7 4 3 9 -3 5 -1 12 5 16 6 4 8 10 5 15 -3 5 -1 11 5 15 6 4 8 11
5 16 -4 5 -2 9 4 9 5 0 8 8 7 18 -2 9 3 26 11 38 7 11 10 24 6 27 -3 4 -2 7 4
7 9 0 11 6 15 50 1 11 5 20 9 20 4 0 10 10 13 23 7 21 7 21 15 2 5 -11 7 -23
4 -27 -2 -5 -1 -8 4 -8 9 0 50 -120 45 -132 -1 -5 2 -8 7 -8 5 0 13 -15 16
-32 4 -18 12 -39 17 -45 6 -7 8 -13 5 -13 -4 0 2 -20 13 -45 11 -25 19 -46 19
-48 0 -1 4 -15 10 -30 6 -15 14 -40 17 -55 4 -15 10 -31 14 -37 5 -5 14 -30
21 -55 7 -25 13 -47 14 -50 1 -3 7 -18 14 -35 7 -16 12 -31 12 -33 -1 -1 5
-17 13 -36 8 -19 12 -37 8 -40 -3 -3 0 -6 6 -6 7 0 11 -3 10 -7 -2 -12 14 -64
28 -92 7 -13 11 -28 8 -33 -3 -4 0 -8 6 -8 6 0 9 -4 6 -9 -3 -4 1 -16 8 -27 8
-10 12 -24 9 -31 -3 -7 0 -13 7 -13 7 0 10 -7 7 -15 -4 -8 -2 -17 2 -19 8 -6
25 -64 22 -78 0 -5 4 -8 10 -8 6 0 9 -7 5 -15 -3 -8 -1 -15 4 -15 6 0 10 -11
10 -24 0 -14 5 -28 10 -31 6 -3 10 -15 10 -26 0 -10 4 -19 8 -19 4 0 8 -8 9
-17 1 -18 17 -68 35 -108 5 -12 10 -29 12 -39 1 -10 12 -28 23 -40 20 -20 29
-21 249 -20 165 0 229 4 232 12 2 7 8 10 12 7 9 -6 -22 91 -33 102 -4 3 -7 17
-7 30 0 12 -3 23 -8 23 -4 0 -13 9 -20 21 -8 12 -9 18 -3 14 6 -3 11 -2 11 4
0 5 -4 11 -10 13 -8 2 -16 29 -19 61 -1 5 -6 5 -13 1 -7 -4 -8 -3 -4 4 4 7 1
26 -7 44 -14 31 -28 67 -32 78 -1 3 -9 22 -18 44 -9 21 -17 42 -17 47 0 5 -4
17 -9 27 -15 29 -29 65 -41 105 -6 20 -15 37 -19 37 -3 0 -8 12 -9 27 -1 15
-7 30 -12 33 -5 3 -11 18 -12 33 -1 15 -6 27 -10 27 -4 0 -8 9 -8 20 0 11 -5
20 -12 20 -6 0 -9 3 -5 6 3 4 0 19 -9 35 -8 16 -12 29 -9 29 4 0 -1 12 -9 28
-13 24 -26 54 -31 75 -2 4 -4 10 -5 15 -1 4 -2 10 -1 15 0 4 -4 7 -9 7 -6 0
-10 11 -10 24 0 14 -5 28 -11 31 -6 4 -8 13 -5 21 3 8 1 14 -4 14 -7 0 -17 20
-25 50 -4 14 -18 47 -26 62 -5 10 -9 23 -9 28 0 6 -8 28 -19 49 -10 22 -24 60
-32 85 -7 25 -17 46 -21 46 -4 0 -8 9 -8 20 0 11 -4 28 -9 38 -10 19 -30 67
-41 97 -4 11 -13 31 -19 45 -7 14 -13 32 -15 40 -1 8 -10 33 -20 55 -10 22
-19 45 -20 50 -6 21 -18 51 -32 78 -8 15 -13 27 -10 27 3 0 -6 24 -19 54 -13
30 -21 57 -18 60 4 3 1 6 -5 6 -7 0 -12 11 -12 25 0 14 -4 25 -8 25 -4 0 -14
21 -21 46 -8 25 -22 63 -32 85 -11 21 -20 46 -22 56 -2 10 -11 32 -20 49 -9
17 -13 34 -10 38 4 3 1 6 -5 6 -6 0 -9 7 -6 15 4 8 1 15 -5 15 -6 0 -11 9 -11
20 0 11 -4 20 -9 20 -5 0 -8 8 -7 18 2 9 -3 27 -11 38 -7 12 -16 32 -18 44 -4
20 -30 49 -46 50 -3 0 -16 -12 -30 -27z"/>
</g>
</svg>
